<?xml version="1.0" encoding="utf-8"?>
<!-- Generator: Adobe Illustrator 18.0.0, SVG Export Plug-In . SVG Version: 6.00 Build 0)  -->
<!DOCTYPE svg PUBLIC "-//W3C//DTD SVG 1.1//EN" "http://www.w3.org/Graphics/SVG/1.1/DTD/svg11.dtd">
<svg version="1.1" id="Layer_1" xmlns="http://www.w3.org/2000/svg" xmlns:xlink="http://www.w3.org/1999/xlink" x="0px" y="0px"
	 viewBox="0 0 780 400" enable-background="new 0 0 780 400" xml:space="preserve">
<g>
	<g>
		<path fill="#194719" d="M638.2,81.7c1,18.5,3.5,37,8.2,55c1-0.3,1.9-0.5,2.9-0.8c-0.8-2.4-1.6-4.7-2.4-7.1
			c-0.5-1.6-2.9-1.3-2.9,0.4c-0.9,18.6,0.7,37.9,6.9,55.5c0.9-0.4,1.8-0.8,2.7-1.2c-5.4-8.1-6.3-18.9-6.1-28.4c0-2-2.8-1.9-3,0
			c-1.7,13.9-3.3,28-2.3,42c0.9,12.9,6.3,24.7,8.1,37.4c0.2,1.7,3.2,1.3,2.9-0.4c-0.6-5.1-1.7-10.1-4.3-14.5
			c-0.8-1.3-2.8-0.7-2.8,0.8c-0.3,18.2,1.3,36.5,6,54.1c0.4,1.6,3.1,1.3,2.9-0.4c-0.5-4.6-1.4-9.4-4.5-13c-1.3-1.5-3.4,0.7-2.1,2.1
			c2.5,3,3.2,7.1,3.6,10.9c1-0.1,2-0.3,2.9-0.4c-4.6-17.4-6.3-35.4-5.9-53.3c-0.9,0.3-1.9,0.5-2.8,0.8c2.4,4,3.4,8.4,3.9,13
			c1-0.1,2-0.3,2.9-0.4c-1.8-13.1-7.2-25.1-8.2-38.4c-1-13.4,0.8-27,2.4-40.3c-1,0-2,0-3,0c-0.2,10,0.8,21.4,6.5,29.9
			c0.9,1.4,3.3,0.5,2.7-1.2c-6.1-17.5-7.7-36.4-6.8-54.7c-1,0.1-2,0.3-2.9,0.4c0.8,2.4,1.6,4.7,2.4,7.1c0.6,1.8,3.4,1.1,2.9-0.8
			c-4.6-17.7-7.1-35.9-8.1-54.2C641.1,79.8,638.1,79.7,638.2,81.7L638.2,81.7z"/>
	</g>
</g>
<g>
	<g>
		<path fill="#194719" d="M638.4,90.5c0,11.2,2,24.1-2.9,34.5c-0.8,1.7,1.8,3.3,2.6,1.5c5.2-11.1,3.3-24,3.3-36
			C641.4,88.6,638.4,88.6,638.4,90.5L638.4,90.5z"/>
	</g>
</g>
<g>
	<g>
		<path fill="#194719" d="M638.4,123.9c0.6,19.7-7.1,37.9-13.4,56.1c-0.2,0.7,0.2,1.3,0.7,1.7c0.2,0.2,0.4,0.3,0.7,0.5
			c0.4,0.3,1.1,0.3,1.5,0c3.1-2.1,4.7-6.6,6.5-9.7c1.9-3.3,3-6.7,3.4-10.5c0.2-1.9-2.8-1.9-3,0c-0.4,3.3-1.4,6.1-3,9
			c-0.4,0.8-5,7.8-4.6,8.1c0.2,0.6,0.5,1.1,0.7,1.7c6.4-18.5,14.1-37,13.5-56.9C641.3,122,638.3,122,638.4,123.9L638.4,123.9z"/>
	</g>
</g>
<g>
	<g>
		<path fill="#194719" d="M634.7,167.5c0.4,10.9,0.1,21.8-0.7,32.7c-0.5,6.1-1.2,12.1-2.1,18.2c-0.6,3.8-1.7,7.6-1.1,11.4
			c0.2,1.1,1.8,1.5,2.5,0.7c2.4-2.7,3.2-6,3.6-9.5c0.3-1.9-2.5-2.7-2.9-0.8c-2,10.4-4.5,20.6-7.9,30.7c-0.4,1.1,0.8,2.2,1.8,1.8
			c1.7-0.5,2.5-1.4,3.5-2.8c1.2-1.6-1.4-3-2.6-1.5c-0.6,0.5-1.2,0.9-1.7,1.4c0.6,0.6,1.2,1.2,1.8,1.8c3.3-10,5.9-20.3,7.9-30.7
			c-1-0.3-1.9-0.5-2.9-0.8c-0.4,2.9-0.9,5.9-2.9,8.2c0.8,0.2,1.7,0.4,2.5,0.7c-0.8-4.7,1.2-10.5,1.8-15.2c0.6-4.5,1.1-9,1.4-13.5
			c0.9-10.9,1.1-21.8,0.7-32.7C637.6,165.6,634.6,165.6,634.7,167.5L634.7,167.5z"/>
	</g>
</g>
<g>
	<g>
		<path fill="#194719" d="M646.3,262.9c-1.4,16.4,0,33.5,5.8,49.1c0.7,1.8,3.4,1.1,2.9-0.8c-1-3.5-2.2-6.9-4.2-9.9
			c-0.6-0.9-2.1-1.1-2.6,0c-2,3.9,0.2,9.1,0.7,13.3c0.6,5.8,0.8,11.6,0.9,17.4c0,1.9,3,1.9,3,0c0-5.2-0.2-10.3-0.7-15.5
			c-0.2-2.5-0.5-5.1-0.9-7.6c-0.2-1.7-1.2-4.5-0.4-6.1c-0.9,0-1.7,0-2.6,0c1.9,2.9,3,5.9,3.9,9.2c1-0.3,1.9-0.5,2.9-0.8
			c-5.7-15.3-7.1-32.1-5.7-48.3C649.4,261,646.4,261,646.3,262.9L646.3,262.9z"/>
	</g>
</g>
<g>
	<g>
		<path fill="#194719" d="M625.4,376.3c1.9,0,1.9-3,0-3C623.5,373.3,623.5,376.3,625.4,376.3L625.4,376.3z"/>
	</g>
</g>
<g>
	<g>
		<path fill="#194719" d="M629.9,250.1c1.2,25.5-0.6,51.2-6.9,76c-0.4,1.7,1.8,2.5,2.7,1.2c0.9-1.4,1.9-2.8,2.8-4.1
			c-0.9-0.3-1.9-0.5-2.8-0.8c-0.6,6-1.6,11.9-3.3,17.7c-0.5,1.9,2.4,2.7,2.9,0.8c1.7-6.1,2.8-12.2,3.4-18.5c0.2-1.6-2-1.9-2.8-0.8
			c-0.9,1.4-1.9,2.8-2.8,4.1c0.9,0.4,1.8,0.8,2.7,1.2c6.3-25,8.2-51.1,7-76.8C632.9,248.2,629.9,248.2,629.9,250.1L629.9,250.1z"/>
	</g>
</g>
<g>
	<path fill="#194719" d="M-14.7,381.8c6.2-4.3,14-6.7,18.4-12.8c1.9-2.6,2.9-5.6,4-8.6c2.6-7.4,5.1-14.8,7.6-22.2
		c-5.2,3.3-10.9,5.9-16.9,7.6c3.3-6.4,6.7-12.9,10-19.3c1.2-2.4,2.5-5.3,1.1-7.6c-1.5,1.4-3.6,2.1-5.7,1.8l-7.6,6.7
		c12.8-12.7,21-30,22.7-48l-3.3,4c0-11.1,1.9-22.2,5.8-32.7c-0.9-0.7-0.8-0.7-1.7-1.3c-4.1,2.7-7.5,6.5-9.8,10.9
		c12.4-15.2,17.5-36.1,13.8-55.3l-4.3-0.8c-5,2.1-8.8,6.7-9.8,12C20,200.3,25.1,181.2,24,162.4c-4.9,3.1-8.5,8.2-9.9,13.8
		c3.2-10.5,12.2-18.3,16.7-28.3C38,132.1,33,113.8,28,97.2c1,11.5-5.1,23.3-15.1,29.2c13-14.9,19.1-35.6,16.4-55.1
		c-1.9,2.4-3.8,4.7-5.7,7.1C34.1,61.8,40.9,43,43.2,23.7l-0.7,14.5c0.1,6.2,0.2,12.4,0.3,18.7c0.1,0.5,0.1,1,0.3,1.5
		c1,3.8,4.1,6.7,7,9.3l-7.3-1.9c-0.8,7.3,1.4,14.6,4.8,21c3.4,6.4,8.1,12.1,12.8,17.7c4.9,5.9,9.8,11.9,14.7,17.8
		c-1.4,1.1-3.5,0-4.9-1c-3.2-2.2-6.4-4.4-9.5-6.6c-4-2.8-8.3-6-9.1-10.8l0.2,5.6c-1.7,19.2,1.4,38.9,9.1,56.6
		c0.7,1.7,1.5,3.7,0.4,5.2c-3.8-1.5-6.8-4.9-7.8-8.8c4.9,11,11.3,21.3,18.9,30.7c-2.2-0.1-4.5-0.8-6.3-2.1l-2.9,1
		c-3.3,26.4,2.7,53.8,16.6,76.4l-6.7-4.1c1.4,6.5,4.2,12.7,8,18.1c-7.3,2.3-15.7,1-21.9-3.5c6.9,14.4,16.7,27.5,28.6,38.1
		c-3.4,0.8-6.9,0.7-10.2-0.2c5.8,7.3,13.1,18,22.2,20.1c0,0-18.2-14.9-42.6-1.1c-14.1-8.1-24.6-4.5-24.6-4.5
		c-15.3,1.3-19.4,27.9-8.3,34.1l0,0l-39.1,17.3"/>
	<g>
		<path fill="#194719" d="M-14,383.1c6.9-4.7,15-7.4,19.8-14.7c2.5-3.9,3.7-8.9,5.2-13.2c1.9-5.5,3.8-11.1,5.7-16.7
			c0.4-1.3-1.1-2.4-2.2-1.7C9.3,340,3.9,342.5-2,344.3c0.6,0.7,1.1,1.5,1.7,2.2c2.7-5.3,5.5-10.5,8.2-15.8c2-3.9,4.7-7.8,3-12.3
			c-0.3-0.8-1.4-1.5-2.2-0.9c-1.8,1.4-4.4,0.6-6,2c-0.6,0.5-1.2,1-1.8,1.6c-1.9,1.7-3.9,3.5-5.8,5.2c0.7,0.7,1.4,1.4,2.1,2.1
			c13.1-13.3,21.2-30.5,23.2-49.1c0.1-1.3-1.8-2-2.6-1.1c-1.1,1.3-2.2,2.6-3.3,4c0.9,0.4,1.7,0.7,2.6,1.1c0.1-11.1,2-21.8,5.8-32.3
			c0.2-0.4,0-1.2-0.4-1.5c-0.6-0.4-1.1-0.9-1.7-1.3c-0.5-0.4-1.2-0.7-1.8-0.2c-4.3,3.1-7.7,6.8-10.3,11.4c-0.8,1.4,1.3,3.2,2.4,1.8
			c12.7-16.1,17.9-36.6,14.2-56.8c-0.1-0.5-0.6-1-1-1c-3.6-0.6-4.9-1.1-8.1,0.8c-4.2,2.5-6.8,6.9-7.9,11.5c-0.4,1.7,1.8,2.6,2.7,1.2
			c10.4-16.2,15.5-35.2,14.6-54.4c0-1.1-1.3-2-2.3-1.3c-5.3,3.6-8.8,8.5-10.6,14.7c-0.5,1.9,2.3,2.6,2.9,0.8
			c4.4-13.3,16.1-22.4,19.3-36.4c3.3-14.4-1.3-29.7-5.4-43.4c-0.5-1.6-3.1-1.3-2.9,0.4c0.7,11.3-4.7,21.9-14.4,27.9
			c0.6,0.8,1.2,1.6,1.8,2.4c13.2-15.6,19.4-35.9,16.9-56.2c-0.1-1.1-1.6-2.2-2.6-1.1c-1.9,2.4-3.8,4.7-5.7,7.1
			c0.8,0.6,1.6,1.2,2.4,1.8c10.6-16.9,17.2-35.6,19.8-55.3c-1,0-2,0-3,0c-0.2,4.8-0.5,9.7-0.7,14.5c-0.2,3.1,0.1,6.3,0.2,9.3
			c0.1,3.1-0.3,6.7,0.2,9.7c0.9,5,4,8.2,7.7,11.5c0.5-0.8,1-1.7,1.5-2.5c-2.4-0.6-4.9-1.2-7.3-1.9c-1-0.3-1.8,0.5-1.9,1.4
			c-0.8,10.9,3.7,20.7,9.9,29.5c6.9,9.8,15.2,18.9,22.8,28.1c0.2-0.8,0.4-1.7,0.7-2.5c-3.4,1.3-10.7-5.7-13.3-7.5
			c-3.7-2.6-7.3-5.3-8.5-9.9c-0.4-1.6-3-1.3-2.9,0.4c0.3,9.7-0.6,19.3,0.4,29.1c0.6,6.1,1.9,12.2,3.5,18.2c0.8,2.9,1.7,5.8,2.7,8.6
			c0.9,2.6,4.3,8.1,3.2,10.8c0.7-0.2,1.4-0.4,2.1-0.5c-3.6-1.6-5.9-4.2-7.1-7.9c-0.9,0.4-1.8,0.8-2.7,1.2
			c5.1,11.1,11.5,21.4,19.1,31c0.4-0.9,0.7-1.7,1.1-2.6c-1.9-0.2-5-2.7-6.7-2c-1,0.3-1.9,0.7-2.9,1c-0.7,0.3-1,0.7-1.1,1.4
			c-3.1,26.9,2.8,54.1,16.8,77.2c0.7-0.7,1.4-1.4,2.1-2.1c-2.2-1.4-4.5-2.8-6.7-4.1c-1.2-0.7-2.5,0.5-2.2,1.7
			c1.6,6.7,4.3,12.8,8.2,18.4c0.3-0.7,0.6-1.5,0.9-2.2c-7.3,2.1-14.5,0.9-20.7-3.4c-1.3-0.9-2.7,0.8-2.1,2.1
			c7.1,14.6,16.8,27.5,28.8,38.4c0.2-0.8,0.4-1.7,0.7-2.5c-3.3,0.6-6.2,0.5-9.4-0.2c-1.6-0.4-2.4,1.4-1.5,2.5
			c6.2,7.9,12.6,17.6,22.9,20.5c1.4,0.4,2.7-1.5,1.5-2.5c-3.8-3.1-8.6-5-13.3-6.2c-4.7-1.2-9.6-1.4-14.4-0.8c-2.7,0.3-5.4,1-8,1.9
			c-1.9,0.6-7,3.9-8.8,2.9c-12-6.6-31.3-7.5-37.5,7.4c-2.7,6.5-3.1,14-0.1,20.5c0.6,1.4,1.6,2.5,2.7,3.6c0.5,0.5,1,0.9,1.6,1.2
			c-1.5-1.1,1.5-2.5,0.4-2.1c-1.9,0.8-3.8,1.7-5.7,2.5c-11,4.9-22.1,9.8-33.1,14.6c-1.8,0.8-0.2,3.4,1.5,2.6
			c13-5.8,26-11.5,39.1-17.3c0.5-0.2,0.8-0.8,0.7-1.3c0-0.9-0.7-1.3-1.4-1.7c-2-1.3-3.2-3.6-4-5.8c-1.5-4.3-1-9.1,0.2-13.4
			c2.4-8.5,9.2-12.1,17.5-12.5c2.6-0.1,5.3,0.3,7.8,0.8c3.9,0.8,7.1,3.4,10.9,4.4c0.4,0.1,0.8,0,1.2-0.2c2.6-1.4,5.1-2.6,7.9-3.6
			c3.7-1.3,7.6-1.9,11.5-2.1c7.2-0.3,16,2.1,21.4,6.5c0.5-0.8,1-1.7,1.5-2.5c-9.6-2.7-15.7-12.2-21.5-19.7c-0.5,0.8-1,1.7-1.5,2.5
			c3.7,0.9,7.2,0.9,11,0.2c1.1-0.2,1.5-1.8,0.7-2.5c-11.8-10.7-21.4-23.5-28.3-37.8c-0.7,0.7-1.4,1.4-2.1,2.1
			c6.9,4.7,15,5.9,23.1,3.7c0.9-0.2,1.5-1.4,0.9-2.2c-3.7-5.4-6.3-11.3-7.9-17.7c-0.7,0.6-1.5,1.1-2.2,1.7c2.2,1.4,4.5,2.8,6.7,4.1
			c1.3,0.8,2.8-0.8,2.1-2.1c-13.8-22.7-19.5-49.3-16.4-75.7c-0.4,0.5-0.7,1-1.1,1.4c1.4-0.5,2-1,3.2-0.3c1.7,1,3.7,1.2,5.6,1.4
			c1.5,0.2,1.8-1.7,1.1-2.6c-7.5-9.3-13.7-19.5-18.6-30.4c-0.7-1.6-3.2-0.4-2.7,1.2c1.4,4.5,4.2,7.8,8.5,9.7
			c0.7,0.3,1.7,0.3,2.1-0.5c1.9-4.4-1.4-8.9-2.9-13.1c-2.5-6.8-4.2-13.9-5.4-21c-1.9-11.4-0.8-22.6-1.1-34c-1,0.1-2,0.3-2.9,0.4
			c1.4,5.4,5.5,8.6,9.8,11.7c3.9,2.7,10.4,9.8,15.6,7.8c1.1-0.4,1.4-1.6,0.7-2.5c-7.1-8.6-14.5-17.1-21.3-26
			c-6.5-8.6-11.4-18.4-10.6-29.4c-0.6,0.5-1.3,1-1.9,1.4c2.4,0.6,4.9,1.2,7.3,1.9c1.4,0.4,2.6-1.5,1.5-2.5c-1.8-1.6-3.5-3.2-4.9-5.1
			c-2.3-3-2-6.8-2-10.3c-0.1-4.6-0.4-9.2-0.2-13.8c0.2-4.6,0.5-9.2,0.7-13.8c0.1-2-2.8-1.9-3,0c-2.5,19.2-9.1,37.4-19.4,53.8
			c-0.9,1.4,1.3,3.2,2.4,1.8c1.9-2.4,3.8-4.7,5.7-7.1c-0.9-0.4-1.7-0.7-2.6-1.1c2.4,19.5-3.3,39.1-16,54.1c-1.1,1.2,0.3,3.3,1.8,2.4
			c10.5-6.5,16.6-18.1,15.9-30.5c-1,0.1-2,0.3-2.9,0.4c4.2,14,8.4,28.8,5,43.5c-3,13.2-14.7,22-18.9,34.7c1,0.3,1.9,0.5,2.9,0.8
			c1.5-5.4,4.6-9.7,9.2-12.9c-0.8-0.4-1.5-0.9-2.3-1.3c0.9,18.8-4,37.1-14.2,52.9c0.9,0.4,1.8,0.8,2.7,1.2
			c1.2-4.8,5.1-11.4,10.6-10.5c1.8,0.3,0.8,0,0.9,0.8c0.4,2,0.5,3.9,0.7,5.9c0.3,3.2,0.2,6.4,0,9.5c-0.8,13.4-6.1,26.4-14.4,36.9
			c0.8,0.6,1.6,1.2,2.4,1.8c2.4-4.2,5.3-7.6,9.3-10.3c-0.6-0.1-1.2-0.2-1.8-0.2c1.8,1.4-0.4,5-1,6.9c-0.9,3-1.5,6-2.1,9
			c-1.1,5.6-1.5,11.3-1.5,17c0,1.2,1.7,2.1,2.6,1.1c1.1-1.3,2.2-2.6,3.3-4c-0.9-0.4-1.7-0.7-2.6-1.1c-1.9,17.8-9.8,34.2-22.3,46.9
			c-1.4,1.4,0.7,3.4,2.1,2.1c1.7-1.5,3.4-3.1,5.2-4.6c0.8-0.7,1.5-1.4,2.3-2.1c-0.9,0.8,4.2-0.3,2.5,0.1c1.1-0.2,2.1-1,3-1.7
			c-0.7-0.3-1.5-0.6-2.2-0.9c1.6,4.3-2.6,9.8-4.6,13.5c-2.1,4.1-4.3,8.2-6.4,12.3c-0.6,1.1,0.4,2.6,1.7,2.2
			c6.1-1.9,11.8-4.4,17.2-7.8c-0.7-0.6-1.5-1.1-2.2-1.7c-3.1,9.2-5.7,18.9-9.8,27.8c-3.6,7.8-12.8,10.5-19.5,15
			C-17.1,381.6-15.6,384.2-14,383.1L-14,383.1z"/>
	</g>
</g>
<path fill="none" stroke="#194719" stroke-width="6" d="M109.7,350.7c0,0-31.1,46.8-61.2,0C78.7,304,109.7,350.7,109.7,350.7z"/>
<path fill="none" stroke="#194719" stroke-width="5" d="M79.2,352.2c0,0,15.1,11.4,30.2,17.9c15.5,6.6,31.4-3.5,31.4-18.9
	c0-14.5-15.9-26-31.4-19.2c-15.1,6.6-30.1,19.2-30.1,19.2V352.2c0,0-14.6,11.4-29.7,17.9c-15.5,6.6-31.2-3.5-31.1-18.9
	c0-14.5,15.6-26,31.1-19.2c15.1,6.6,29.8,19.2,29.8,19.2V352.2z"/>
<path fill="none" stroke="#194719" stroke-width="6" d="M720.7,352.7c0,0-31.1,46.8-61.2,0C689.7,306,720.7,352.7,720.7,352.7z"/>
<path fill="none" stroke="#194719" stroke-width="5" d="M690.2,354.2c0,0,15.1,11.4,30.2,17.9c15.5,6.6,31.4-3.5,31.4-18.9
	c0-14.5-15.9-26-31.4-19.2c-15.1,6.6-30.1,19.2-30.1,19.2V354.2c0,0-14.6,11.4-29.7,17.9c-15.5,6.6-31.2-3.5-31.1-18.9
	c0-14.5,15.6-26,31.1-19.2c15.1,6.6,29.8,19.2,29.8,19.2V354.2z"/>
<g>
	<path fill="#335C33" stroke="#194719" stroke-width="3" d="M176,376.8c-0.8,0.1-1.3,0.1-1.5,0.2h-13.8c-1.8,0-2.7-0.4-2.7-1.2
		c0-0.4,0.4-1.3,1.3-2.9c0.9-1.5,1.3-3.1,1.3-5v-23.5c0-0.5-0.4-0.8-1.4-0.8c-2.3,0-5,1.1-7.8,3.3c-3.4,2.6-5.1,5.6-5.1,8.9V366
		c0,2.7,0.2,4.7,0.7,5.8c0.2,0.5,0.7,1.7,1.7,3.7c0,1-0.7,1.5-2,1.5h-13c-2.5,0-3.8-0.6-3.8-1.7c2.1-2.1,3.3-7.2,3.3-15v-14.7
		c0-6.7-0.3-11.4-1-14c-0.8-1.6-1.5-3.1-2.3-4.7c0-1,1-1.7,2-1.6h15c1.3,0,1.9,0.6,1.9,1.9c0,0.7-0.4,1.5-1.1,2.6
		c-0.7,1.1-1.1,2.3-1.1,3.5v6.3c0,0.8,0.3,1.3,1,1.3c0.5,0,1.3-0.1,2.3-0.5c1.6-0.5,2.7-0.8,3.3-0.9c4.9-0.6,7.3-1.4,7.3-2.4
		l-0.1-3.5c-0.1-1.1-0.5-2.4-1.3-3.9c-0.8-1.6-1.3-2.4-1.3-2.5c0-1.3,1-1.9,3-1.9h12.4c2.5,0,3.8,0.7,3.8,1.9c0,0.4-0.2,0.8-0.7,1.3
		c-1.3,1.4-1.9,4.4-1.9,9v26.4c0,3.7,0.3,6.4,0.8,8l1.9,3.8C176.9,376.2,176.6,376.5,176,376.8z"/>
	<path fill="#335C33" stroke="#194719" stroke-width="3" d="M212.6,375.8c-0.8,0.6-1.5,0.9-2.2,0.9c-1.1,0.2-2.6,0.2-4.4,0.2h-0.5
		c-1.3,0-2.6-0.1-3.8-0.3c-0.2-0.2-0.4-0.6-0.4-0.9c0-0.2,0-0.4,0-0.5l1.1-1.4c0.5-0.5,0.7-1,0.8-1.6c0-1.9-0.3-4-0.9-6.3
		c-0.4-1.2-0.9-3.2-1.9-6c-0.1-0.1-0.2-0.1-0.5-0.1c-1.2,2-2.5,3.2-3.9,3.8c-0.1,0.1-0.4,0.1-0.7,0.1c-0.6,0-1-0.2-1-0.7
		c0.1-0.5,0.1-0.9,0.1-1.4s-0.1-0.8-0.3-1c-0.6-0.9-1.5-1.3-2.8-1.3c-0.5,0-0.9,0-1.3,0.1c-2.3,1-4,2.8-4.9,5.5
		c-0.6,1.5-1,4-1.3,7.6c0,0.1,0,0.1,0,0.3c0,0.4,0.2,0.9,0.7,1.4c0.6,0.8,0.9,1.3,0.9,1.5c0,0.5-0.4,0.8-1.1,1
		c-1.7,0.2-2.5,0.2-2.3,0.2c-1.2,0-2.1-0.4-2.6-1.1c-0.1-0.5-0.1-1-0.1-1.6c0-1.4,0.5-3.7,1.5-6.9c0.6-2.1,1.4-4.4,2.2-6.8
		c1.2-3.6,3-8.1,5-13.5c0.2-0.2,0.2-0.5,0.2-0.8c0-0.3-0.2-0.9-0.6-1.5c-0.4-0.6-0.6-1.1-0.6-1.4c0-0.4,0.2-0.7,0.7-1l1.1-0.1
		c1.4-0.1,2.9-0.1,4.9-0.1c1.4,0,2.5,0,3.2,0h1.2l7.4-0.1c0.1,0,0.4,0.2,0.9,0.7c0,0.4-0.1,1-0.5,1.7c-0.4,0.6-0.5,1.1-0.5,1.5
		c0,0.1,0,0.4,0.1,0.6l3,8.8c1.2,3.8,2.1,6.7,2.6,8.9c0.8,3.2,1.4,6.3,1.8,9.3C213.2,374.4,213,375.2,212.6,375.8z M197.9,352.3
		c0-0.6-0.4-1.5-1.2-3c-0.6-1.1-1.2-1.8-2-2.3c-0.1,0-0.3-0.1-0.5-0.1c-0.4,0-0.9,0.2-1.5,0.7c-0.9,1-1.7,2.2-2.4,3.5
		c-0.4,1-0.9,2.3-1.5,3.9c0,0.2,0.1,0.4,0.4,0.4c1.9-1.9,3.6-2.8,5.1-2.8c0.9,0,2,0.2,3.2,0.6c0.1,0,0.2-0.2,0.4-0.7
		C197.9,352.6,197.9,352.5,197.9,352.3z"/>
	<path fill="#335C33" stroke="#194719" stroke-width="3" d="M237.1,375.8c-2.6,0.8-5.4,1.1-8.3,1.1c-3.8,0-7.1-0.6-10-2
		c-2.1-1.4-3.1-3.1-3.1-5c0-0.2,0-0.6,0.1-1c0-1,0.4-2,1.2-3c0.7-0.9,1.6-1.5,2.6-2c1.2-0.4,2.4-0.5,3.6-0.5c1.6,0,2.8,0.4,3.6,1.3
		c0,0.5-0.4,0.8-1.1,1.2c-0.9,0.5-1.4,0.8-1.6,0.9c-0.2,0.2-0.5,0.6-0.6,1.3c-0.1,0.9-0.3,1.3-0.4,1.4c0,1.6,0.9,2.8,2.7,3.6
		c1,0.3,1.8,0.5,2.3,0.5c0.8,0,1.6-0.2,2.3-0.8c1.6-1,2.3-2.6,2.3-4.6c0-0.5,0-0.8-0.1-0.9c-0.5-2.1-1.9-3.9-4.1-5.4
		c-1.8-1.1-3.6-2.2-5.4-3.4c-2.2-1.4-3.8-2.7-4.9-3.9c-1.4-1.6-2.2-3.2-2.4-4.8c-0.1-0.1-0.1-0.4-0.1-0.8c0-2.2,1-4,2.8-5.4
		c1.7-1.2,4.1-1.8,7.3-1.8c0.9,0,2.1,0,3.8,0.2c1.7,0.1,3,0.2,3.8,0.2c1.4,0,2.6-0.1,3.7-0.4c0.5-0.1,0.9-0.1,1.1-0.1
		c0.7,0,1.1,0.4,1.4,1.4c0.1,0.5,0.2,1,0.4,1.5c0.3,1.2,0.5,2.2,0.5,2.8c-0.1,0.1-0.1,0.4-0.1,0.5c0,0.6-0.3,1-0.8,1.2
		c-0.6,0.1-1.2-0.2-1.9-1c-0.8-1-1.4-1.6-1.7-1.8c-1.3-1.1-3-1.6-4.9-1.6c-1.2,0-2.2,0.2-3.2,0.8c-0.9,0.8-1.4,1.5-1.3,2.2
		c0,1.2,0.6,2.2,1.6,3l9.2,6.8c3.4,3.1,5.1,6.3,5.1,9.6c0,0.7-0.1,1.4-0.2,2.4C241.8,372.3,239.8,375,237.1,375.8z"/>
	<path fill="#335C33" stroke="#194719" stroke-width="3" d="M270,376c-0.6,0.7-1.4,1-2.1,1H247c-1.4,0-2.1-0.5-2.1-1.4
		c0-0.1,0.4-0.7,1.2-2c0.8-1.2,1.2-2.7,1.2-4.3l0-19.9c0-1.5-0.2-2.6-0.7-3.4c-0.3-0.6-0.8-1.3-1.5-2.4c0-0.9,0.6-1.2,1.8-1.2h15.9
		c2.6,0,5.1-0.2,7.2-0.5c0.7,0,1.2,0.8,1.5,2.4c0.2,1,0.4,2,0.4,3.1c0,1.4-0.4,2-1.1,2c-0.2,0-0.7-0.4-1.4-1.1c-1-1-1.9-1.6-2.8-2.1
		c-1.4-0.8-2.9-1.1-4.5-1.1c-1.5,0-2.7,0.4-3.7,1.1c-1,0.8-1.6,1.9-1.6,3.4c0,0.4,0,1,0,1.7c0,0.6,0,1.2,0,1.6c0,1,0.1,1.5,0.4,1.5
		c1.2-2.6,3.9-4.2,6.9-4.2c1.5,0,2.8,0.8,3.7,2.2c0.8,1.1,1.1,2.2,1.1,3c0,2.2-0.9,3.8-2.5,4.8c-1.4,0.8-2.5,1.1-3.2,0.9
		c-0.2-0.1-0.2-0.2-0.2-0.4c0-0.2,0.5-1.3,0.5-1.8c0-0.6-0.4-1.2-1-1.8c-0.5-0.4-0.9-0.6-1.2-0.6c-3.2,0-4.7,3.2-4.7,9.5v1.7
		c0,2.2,0.2,3.7,0.8,4.5c0.6,1,1.6,1.4,3.1,1.4c2.4,0,4.5-0.8,6.3-2.3l5-5c0.8,0,1.1,0.5,1.1,1.5C272.7,370.2,271.8,373,270,376z"/>
	<path fill="#335C33" stroke="#194719" stroke-width="3" d="M298.7,377h-20.9c-1.1,0-1.7-0.3-1.7-1c0-0.1,0.3-0.9,0.9-2.5
		c0.5-1.5,0.9-2.9,0.9-4.1c0-1.4,0-4.4-0.1-9.2l-0.2-9.3c0-2.3-0.2-4-0.6-5.1l-1.5-2.9c0-0.8,0.8-1.1,2.2-1.1h9.6c0.5,0,0.9,0,1,0
		c0.5,0.1,0.8,0.5,0.8,1.1c0,0.1-0.4,0.6-1,1.7c-0.7,1-1.1,2.1-1.1,3.2v13.8v1.3c0,0.3,0,0.6,0,0.8v0.5c0,3,0.2,5.1,0.6,6.5
		c0.7,2.3,2,3.4,3.9,3.4c2,0,3.8-1.6,3.8-3.6c0-0.9-0.5-1.8-1.3-2.6l-2.4-2c0-0.6,0.6-1.2,1.8-1.7c1-0.4,1.8-0.6,2.6-0.6
		c2.1,0,4,0.8,5.6,2.5c1.7,1.6,2.6,3.5,2.6,5.6C303.9,374.8,301.8,377,298.7,377z"/>
	<path fill="#335C33" stroke="#194719" stroke-width="3" d="M359.2,376.1c-0.6,0.5-1.2,0.8-1.8,0.8c-0.9,0.1-2.1,0.2-3.5,0.2h-0.4
		c-1,0-2-0.1-3-0.2c-0.2-0.2-0.3-0.4-0.3-0.7c0-0.2,0-0.4,0-0.4l0.9-1.1c0.4-0.4,0.6-0.8,0.6-1.3c0-1.5-0.2-3.2-0.7-5
		c-0.3-1-0.7-2.5-1.5-4.8c0,0-0.2-0.1-0.4-0.1c-1,1.6-2,2.6-3.1,3c-0.1,0-0.3,0-0.6,0c-0.5,0-0.8-0.2-0.8-0.5
		c0.1-0.4,0.1-0.8,0.1-1.1c0-0.4-0.1-0.6-0.2-0.8c-0.5-0.7-1.2-1-2.2-1c-0.4,0-0.7,0-1,0.1c-1.8,0.8-3.2,2.2-3.9,4.4
		c-0.4,1.2-0.8,3.2-1,6.1c0,0,0,0.1,0,0.2c0,0.3,0.2,0.7,0.6,1.2c0.5,0.6,0.7,1,0.7,1.2c0,0.4-0.3,0.6-0.9,0.8
		c-1.3,0.1-2,0.2-1.8,0.2c-1,0-1.7-0.3-2.1-0.9c-0.1-0.4-0.1-0.8-0.1-1.2c0-1.1,0.4-2.9,1.2-5.5c1.1-3.5,2.3-7.1,3.7-11l2-5.5
		c0.1-0.2,0.2-0.4,0.2-0.6c0-0.3-0.2-0.7-0.5-1.2c-0.3-0.5-0.5-0.9-0.5-1.1c0-0.3,0.2-0.6,0.6-0.8l0.9-0.1c1.1-0.1,2.3-0.1,3.9-0.1
		c1.1,0,2,0,2.6,0h1l5.9-0.1c0.1,0,0.4,0.2,0.7,0.6c0,0.3-0.1,0.8-0.4,1.3c-0.3,0.5-0.4,0.9-0.4,1.2c0,0.1,0,0.3,0.1,0.5l2.4,7
		c0.9,2.8,1.6,5.2,2.2,7.2c0.7,2.6,1.2,5.1,1.4,7.4C359.7,374.9,359.5,375.5,359.2,376.1z M346.7,355.5c-0.6-1.3-1.3-2.2-2-2.6
		c-0.1,0-0.2-0.1-0.4-0.1c-0.3,0-0.7,0.2-1.2,0.6c-0.7,0.7-1.3,1.7-1.8,2.9c-0.3,0.7-0.7,1.7-1.2,3.2c0,0.2,0.1,0.3,0.3,0.3
		c1.5-1.5,2.8-2.2,4.1-2.2c0.7,0,1.6,0.2,2.5,0.5c0.1,0,0.2-0.2,0.3-0.6C347.5,357.4,347.3,356.7,346.7,355.5z"/>
	<path fill="#335C33" stroke="#194719" stroke-width="3" d="M386.9,369.1c-0.1,2.6-0.2,4.4-0.2,5.7c0,1.6-0.8,2.3-2.5,2.3
		c-1.2,0-1.8-0.3-1.8-1c0-0.2,0.3-0.7,0.9-1.6c0.3-0.4,0.4-0.9,0.4-1.2c0-1.2-1.3-3.1-3.8-5.6l-4.5-4.2l-7.9-7.2
		c-0.4-0.3-0.6-0.5-0.8-0.5c-0.2,0-0.3,0.2-0.3,0.7v1.1c0,0.4,0,0.9,0,1.4c0,0.5,0,1,0,1.4v1c0,5.5,0.3,9.3,0.8,11.4l1.9,3.4
		c0,0.6-0.8,0.9-2.4,0.9c-1.6,0-2.6-0.6-3-1.7c-0.2-0.8-0.4-3.4-0.4-7.6c0-1.1,0-2.7,0.1-4.8c0.2-5,0.3-7.8,0.3-8.8
		c0-1.2-0.5-2.2-1.5-3c-0.5-0.4-0.7-0.8-0.7-1.2c0-0.6,0.5-1,1.6-1h5.4c1.1,0,2,0.3,2.8,0.9c0.3,0.2,0.8,0.7,1.8,1.5l5.4,5
		c1.6,1.5,3.2,3,5,4.7c0.2,0.2,0.3,0.2,0.4,0.2c0.2,0,0.3-0.3,0.3-0.9c0-3.3-0.3-5.8-0.9-7.4l-2-3.2c0-0.7,0.9-1,2.7-1
		c1.5,0,2.4,0.8,2.7,2.4c0.2,1.2,0.3,5.2,0.3,12C387,364.6,387,366.5,386.9,369.1z"/>
	<path fill="#335C33" stroke="#194719" stroke-width="3" d="M412.4,371.1c-2.9,3.9-6.9,5.8-11.9,5.8h-4.2h-1.4c-0.6,0-1.2,0-2,0
		c-1.2,0-1.8-0.5-1.8-1.7l0-22.1c0-0.4-0.1-0.8-0.3-1.2c0-0.1-0.4-0.6-1.1-1.7c0-0.2-0.1-0.2-0.1-0.3c0-0.3,0.2-0.5,0.6-0.7
		c0.5-0.1,1.2-0.2,2-0.2c-0.4,0,0.8,0,3.3,0.1h0.7c0.1,0,0.2,0,0.4,0h2.6c1,0,2.2,0,3.5,0l6,0c2.4,0,4.4,1.3,5.7,3.8
		c1.1,2.1,1.6,4.5,1.6,7.1C416,364.2,414.8,367.9,412.4,371.1z M406.6,355.1c-0.8-2.5-2.2-3.8-4.1-3.8c-1.3,0-2.3,0.5-3,1.6
		c-0.6,0.8-0.9,2-0.9,3.4l-0.1,15c0,0.6,0.1,1.3,0.4,2.1c0.4,0.9,0.8,1.4,1.3,1.4c2,0,3.8-1.8,5.4-5.4c1.2-2.9,1.8-5.6,1.8-8.1
		C407.5,358.9,407.2,356.8,406.6,355.1z"/>
	<path fill="#335C33" stroke="#194719" stroke-width="3" d="M483.2,376.3c-3.1,0.4-5.8,0.7-8.3,0.7c-14.4,0-23.8-5.8-27.8-17.2
		c-1.3-3.8-2-8-2-12.7c0-5.1,1-9.8,3.1-14c2.6-5.3,6.2-7.8,10.9-7.8c1.8,0,4.4,0.1,7.9,0.3c3.5,0.1,6.1,0.2,7.8,0.2
		c0.4,0,3.4-0.1,9.1-0.4c1-0.1,1.9,1,2.6,3.5c0.6,1.9,0.9,3.5,0.9,4.8c0,1.9-0.4,2.7-1.4,2.7c-0.4,0-1.3-0.6-2.7-1.7
		c-1.8-1.5-3.3-2.5-4.4-3c-2.1-1.1-4.4-1.7-6.9-1.7c-7.6,0-11.5,6-11.5,18.1c0,6.4,1.1,11.7,3.3,15.9c2.7,5.3,5.7,8,9,8
		c1.1,0,1.9-1,2.1-2.9c0.1-0.5,0.1-1.9,0.1-4.1v-5.2c0-4.7-0.4-8.1-1.1-10.1c-0.9-1.5-1.8-3-2.6-4.4c0-1.4,2.3-2.1,6.8-2.1h3.4
		c2.1,0,3.6,0.3,4.6,0.9c1.1,0.7,1.7,1.9,1.8,3.9c0,0.8,0.1,3.3,0.1,7.2c0.1,2.9,0.1,5.3,0.1,7.2c0,3.8,0.1,6.4,0.4,7.8l1.2,3.4
		C489.7,374.8,487.6,375.7,483.2,376.3z"/>
	<path fill="#335C33" stroke="#194719" stroke-width="3" d="M526.1,376.5c-2.2,0-5.1-1.1-8.4-3.2c-3.2-2-5.9-4.4-8.2-7.2
		c-2.5-3.1-3.7-5.7-3.7-7.9c0-1.6,0.6-2.3,1.8-2.3c0.4,0,0.8,0.1,1.4,0.3c0.6,0.2,1,0.3,1.1,0.3c1.1,0,2-0.5,2.7-1.6
		c0.5-0.9,0.8-1.9,0.8-3.1c0-1.6-0.4-3.1-1.1-4.4c-0.9-1.5-2.1-2.2-3.8-2.2c-2.1,0-3.5,1.1-4.2,3.1c-0.4,1.2-0.6,3.1-0.6,5.5
		c0,1.9,0.2,5.2,0.5,10l0.2,5.3c0.1,2.5,0.6,4.1,1.2,4.8c0.8,0.9,1.1,1.5,1.1,2c0,0.6-0.7,1-2.1,1h-6.3c-2.4,0-3.2-0.8-3.2-3.1v-1.2
		c0-2.5-0.1-6.1-0.4-10.9c-0.2-4.9-0.3-8.5-0.3-10.9c0-2-0.2-3.5-0.6-4.4l-1.4-2.3c0-0.6,0.9-1.2,1.5-1.2c2.6,0,5.7-0.1,9.5-0.4
		c2.6-0.1,6.5-0.4,11.7-0.6c2.6-0.1,4.7,0.4,6.4,1.4c1.9,1.1,2.9,3,2.9,5.4c0,2.1-0.9,4-2.6,5.6l-5.3,5.1c0,1.6,1.4,4.4,4.2,8.4
		c0.6,0.9,2.6,3.5,6.1,8.1C527,376.3,526.7,376.5,526.1,376.5z"/>
	<path fill="#335C33" stroke="#194719" stroke-width="3" d="M554,376c-0.7,0.7-1.4,1-2.1,1h-20.9c-1.4,0-2.1-0.5-2.1-1.4
		c0-0.1,0.4-0.7,1.2-2s1.2-2.7,1.2-4.3l0-19.9c0-1.5-0.2-2.6-0.7-3.4c-0.3-0.6-0.8-1.3-1.5-2.4c0-0.9,0.6-1.2,1.8-1.2h15.9
		c2.7,0,5.1-0.2,7.2-0.5c0.7,0,1.2,0.8,1.5,2.4c0.3,1,0.4,2,0.4,3.1c0,1.4-0.4,2-1.1,2c-0.2,0-0.7-0.4-1.4-1.1c-1-1-1.9-1.6-2.8-2.1
		c-1.3-0.8-2.8-1.1-4.5-1.1c-1.5,0-2.7,0.4-3.7,1.1c-1,0.8-1.5,1.9-1.5,3.4c0,0.4,0,1,0,1.7c0,0.6,0,1.2,0,1.6c0,1,0.1,1.5,0.4,1.5
		c1.2-2.6,3.9-4.2,6.9-4.2c1.5,0,2.8,0.8,3.7,2.2c0.8,1.1,1.2,2.2,1.2,3c0,2.2-0.9,3.8-2.5,4.8c-1.4,0.8-2.5,1.1-3.2,0.9
		c-0.2-0.1-0.2-0.2-0.2-0.4c0-0.2,0.5-1.3,0.5-1.8c0-0.6-0.4-1.2-1-1.8c-0.5-0.4-0.9-0.6-1.2-0.6c-3.2,0-4.7,3.2-4.7,9.5v1.7
		c0,2.2,0.2,3.7,0.8,4.5c0.6,1,1.6,1.4,3.1,1.4c2.4,0,4.5-0.8,6.3-2.3l5-5c0.8,0,1.2,0.5,1.2,1.5C556.7,370.2,555.8,373,554,376z"/>
	<path fill="#335C33" stroke="#194719" stroke-width="3" d="M589.4,350.2c0,1.4-0.3,2.1-1,2.1c-1.2-1.9-2.2-3.2-3.1-4
		c-1.4-1.3-2.9-2-4.5-2c-1.2,0-1.8,0.9-1.8,2.5v20.5c0,1.6,0.8,3.8,2.4,6.4c0,0.6-1,1.1-1.7,1.1h-10.3c-1,0-1.5-0.2-1.5-0.8
		c0-0.1,0.4-1,1-2.3c0.7-1.4,1.1-2.9,1.1-4.6L570,349c0-1-1.3-2.4-2.3-2.4c-1.5,0-2.7,0.5-3.8,1.5c-0.5,0.4-1.2,1.4-2.2,2.9
		c-0.7,1-1.2,1.5-1.7,1.5c-0.7,0-1-1-1-2.8c0-1.4,0.3-2.9,0.9-4.4c0.8-1.9,1.8-2.8,3-2.8h23.3c1,0,1.9,1,2.5,3
		c0.5,1.5,0.8,2.9,0.8,4.2V350.2z"/>
	<path fill="#335C33" stroke="#194719" stroke-width="3" d="M616.7,376c-0.7,0.7-1.4,1-2.1,1h-20.9c-1.4,0-2.1-0.5-2.1-1.4
		c0-0.1,0.4-0.7,1.2-2s1.2-2.7,1.2-4.3l0-19.9c0-1.5-0.2-2.6-0.7-3.4c-0.3-0.6-0.8-1.3-1.5-2.4c0-0.9,0.6-1.2,1.8-1.2h15.9
		c2.7,0,5.1-0.2,7.2-0.5c0.7,0,1.2,0.8,1.5,2.4c0.3,1,0.4,2,0.4,3.1c0,1.4-0.4,2-1.1,2c-0.2,0-0.7-0.4-1.4-1.1c-1-1-1.9-1.6-2.8-2.1
		c-1.3-0.8-2.8-1.1-4.5-1.1c-1.5,0-2.7,0.4-3.7,1.1c-1,0.8-1.5,1.9-1.5,3.4c0,0.4,0,1,0,1.7c0,0.6,0,1.2,0,1.6c0,1,0.1,1.5,0.4,1.5
		c1.2-2.6,3.9-4.2,6.9-4.2c1.5,0,2.8,0.8,3.7,2.2c0.8,1.1,1.2,2.2,1.2,3c0,2.2-0.9,3.8-2.5,4.8c-1.4,0.8-2.5,1.1-3.2,0.9
		c-0.2-0.1-0.2-0.2-0.2-0.4c0-0.2,0.5-1.3,0.5-1.8c0-0.6-0.4-1.2-1-1.8c-0.5-0.4-0.9-0.6-1.2-0.6c-3.2,0-4.7,3.2-4.7,9.5v1.7
		c0,2.2,0.2,3.7,0.8,4.5c0.6,1,1.6,1.4,3.1,1.4c2.4,0,4.5-0.8,6.3-2.3l5-5c0.8,0,1.2,0.5,1.2,1.5C619.4,370.2,618.5,373,616.7,376z"
		/>
	<path fill="#335C33" stroke="#194719" stroke-width="3" d="M645.5,377h-20.9c-1.2,0-1.7-0.3-1.7-1c0-0.1,0.3-0.9,0.8-2.5
		c0.5-1.5,0.9-2.9,0.9-4.1c0-1.4,0-4.4-0.2-9.2l-0.2-9.3c0-2.3-0.2-4-0.6-5.1l-1.5-2.9c0-0.8,0.8-1.1,2.2-1.1h9.6c0.5,0,0.9,0,1,0
		c0.5,0.1,0.8,0.5,0.8,1.1c0,0.1-0.4,0.6-1,1.7c-0.7,1-1.1,2.1-1.1,3.2v13.8v1.3c0,0.3,0,0.6,0,0.8v0.5c0,3,0.2,5.1,0.7,6.5
		c0.7,2.3,2,3.4,3.8,3.4c2,0,3.8-1.6,3.8-3.6c0-0.9-0.5-1.8-1.3-2.6l-2.3-2c0-0.6,0.6-1.2,1.8-1.7c1-0.4,1.8-0.6,2.6-0.6
		c2.1,0,4,0.8,5.6,2.5c1.7,1.6,2.6,3.5,2.6,5.6C650.7,374.8,648.5,377,645.5,377z"/>
</g>
<g>
</g>
<g>
</g>
<g>
</g>
<g>
</g>
<g>
</g>
<g>
</g>
<g>
</g>
<g>
</g>
<g>
</g>
<g>
</g>
<g>
</g>
<g>
</g>
<g>
</g>
<g>
</g>
<g>
</g>
</svg>
