<?xml version="1.0" encoding="utf-8"?>
<!-- Generator: Adobe Illustrator 18.0.0, SVG Export Plug-In . SVG Version: 6.00 Build 0)  -->
<!DOCTYPE svg PUBLIC "-//W3C//DTD SVG 1.1//EN" "http://www.w3.org/Graphics/SVG/1.1/DTD/svg11.dtd">
<svg version="1.1" xmlns="http://www.w3.org/2000/svg" xmlns:xlink="http://www.w3.org/1999/xlink" x="0px" y="0px"
	 viewBox="208.5 6 537.6 541.3" enable-background="new 208.5 6 537.6 541.3" xml:space="preserve">
<g id="Layer_2">
</g>
<g id="Layer_1">
	<circle fill="#FFFFFF" cx="479.2" cy="276.7" r="270.7"/>
	<g>
		<path fill="#B9000D" d="M431.8,12.4C421.7,16.9,398.2,65.7,394,76c-14.5,35-17.7,83.4-1.8,117.7c23,49.5,85.5,83,85.5,83
			s-32.2-51.6-33.2-111.3c-0.7-32.9,29.3-80.6,46.6-94.3c31.8-24.7,37-30.2,80.1-49C549.4,14.5,506,0,441.7,8.5
			C439,8.8,434.2,11.3,431.8,12.4z"/>
	</g>
	<g>
		<path fill="#B9000D" d="M225,183.4c-0.7,11.3,30.1,56.5,37.2,65.4c23,30,63.2,56.9,101,60.4c54.4,4.9,114.5-32.5,114.5-32.5
			s-60.8,1.8-112.7-26.9c-29-15.9-55.5-65.7-58.6-87.6c-5.7-39.6-6.3-46.4-1-93C280.8,89.2,244.4,127.2,225,183.4"/>
	</g>
	<g>
		<path fill="#B9000D" d="M271.7,448.7c9.2,6.4,62.9,2.5,73.8,0.7c37.5-4.9,80.9-26.1,102.8-57.2c31.4-44.5,29-115.5,29-115.5
			s-28.3,53.7-79.5,84.4c-28.3,17-89.4,12-109.5,3.9c-37.1-15.2-38.2-14.8-76-42.4c4.9,26.1,16,74.9,56.3,124.2"/>
	</g>
	<g>
		<path fill="#B9000D" d="M527.6,543c10.5-3.3,29.2-55.1,33.8-65.7c14.5-35,17.7-83.4,1.8-117.7c-23-49.5-85.5-83-85.5-83
			s32.2,51.6,33.2,111.3c0.7,32.9-29.3,80.6-46.6,94.3c-31.8,24.7-36.4,29.5-79.5,48.2c17.9,6.9,65.9,22.4,127.8,14.9
			C512.6,545.3,524,544.2,527.6,543z"/>
	</g>
	<g>
		<path fill="#B9000D" d="M732.7,371.7c0.7-11.3-32.4-58.6-39.5-67.5c-23-30-63.2-56.9-101-60.4c-54.4-4.9-114.5,32.5-114.5,32.5
			s60.8-1.8,112.7,26.9c29,15.9,55.5,65.7,58.3,87.3c5.7,39.6,7.4,49,2.1,95.6c15.1-12,52.3-45.1,78.8-105.2L732.7,371.7z"/>
	</g>
	<g>
		<path fill="#B9000D" d="M686.6,102.8c-9.2-6.4-65.8-0.3-77.1,1.1c-37.5,4.9-80.9,26.1-102.8,57.2c-31.4,44.5-29,115.5-29,115.5
			s28.6-53.7,79.8-84.4c28.3-17,82.3-14.1,102.8-6c37.1,15.2,48,17.7,85.8,45.6C740.4,196.2,724.5,146.6,686.6,102.8L686.6,102.8z"
			/>
	</g>
	<path display="none" fill="none" stroke="#000000" stroke-miterlimit="10" d="M657.2,408.4"/>
	<path display="none" fill="none" stroke="#000000" stroke-miterlimit="10" d="M303.9,69.2c0,0-36.4,213,173.8,207.4"/>
	<path display="none" fill="none" stroke="#000000" stroke-miterlimit="10" d="M698.9,301"/>
	<path display="none" fill="none" stroke="#000000" stroke-miterlimit="10" d="M223.3,183.7c0,0,74.9,202.8,254.4,92.9"/>
	<path display="none" fill="none" stroke="#000000" stroke-miterlimit="10" d="M681.6,187.3"/>
	<path display="none" fill="none" stroke="#000000" stroke-miterlimit="10" d="M211,323.6c0,0,166.4,138.1,266.8-46.6"/>
	<path display="none" fill="none" stroke="#000000" stroke-miterlimit="10" d="M609.5,97.2"/>
	<path display="none" fill="none" stroke="#000000" stroke-miterlimit="10" d="M270.3,450.5c0,0,213,36.4,207.4-173.8"/>
	<path display="none" fill="none" stroke="#000000" stroke-miterlimit="10" d="M502.1,55.5"/>
	<path display="none" fill="none" stroke="#000000" stroke-miterlimit="10" d="M384.8,531c0,0,202.8-74.9,92.9-254.4"/>
	<path display="none" fill="none" stroke="#000000" stroke-miterlimit="10" d="M388.3,72.8"/>
	<path display="none" fill="none" stroke="#000000" stroke-miterlimit="10" d="M524.3,543.4c0,0,138.1-166.4-46.6-266.8"/>
	<path display="none" fill="none" stroke="#000000" stroke-miterlimit="10" d="M298.2,144.9"/>
	<path display="none" fill="none" stroke="#000000" stroke-miterlimit="10" d="M651.5,484c0,0,36.4-213-173.8-207.4"/>
	<path display="none" fill="none" stroke="#000000" stroke-miterlimit="10" d="M256.5,252.3"/>
	<path display="none" fill="none" stroke="#000000" stroke-miterlimit="10" d="M732.1,369.6c0,0-74.9-202.8-254.4-92.9"/>
	<path display="none" fill="none" stroke="#000000" stroke-miterlimit="10" d="M273.8,366"/>
	<path display="none" fill="none" stroke="#000000" stroke-miterlimit="10" d="M744.5,230c0,0-166.4-138.1-266.8,46.6"/>
	<path display="none" fill="none" stroke="#000000" stroke-miterlimit="10" d="M345.9,456.1"/>
	<path display="none" fill="none" stroke="#000000" stroke-miterlimit="10" d="M685.1,102.8c0,0-213-36.4-207.4,173.8"/>
	<path display="none" fill="none" stroke="#000000" stroke-miterlimit="10" d="M453.3,497.8"/>
	<path display="none" fill="none" stroke="#000000" stroke-miterlimit="10" d="M570.3,22.3c0,0-202.8,74.9-92.9,254.4"/>
	<path display="none" fill="none" stroke="#000000" stroke-miterlimit="10" d="M567.1,480.5"/>
	<path display="none" fill="none" stroke="#000000" stroke-miterlimit="10" d="M430.7,9.9c0,0-138.1,166.4,46.6,266.8"/>
	<path display="none" fill="none" stroke="#000000" stroke-miterlimit="10" d="M657.2,408.4"/>
	<path display="none" fill="none" stroke="#000000" stroke-miterlimit="10" d="M303.9,69.2c0,0-36.4,213,173.8,207.4"/>
</g>
</svg>
