<?xml version="1.0" encoding="utf-8"?>
<!-- Generator: Adobe Illustrator 18.0.0, SVG Export Plug-In . SVG Version: 6.00 Build 0)  -->
<!DOCTYPE svg PUBLIC "-//W3C//DTD SVG 1.1//EN" "http://www.w3.org/Graphics/SVG/1.1/DTD/svg11.dtd">
<svg version="1.1" id="Layer_1" xmlns="http://www.w3.org/2000/svg" xmlns:xlink="http://www.w3.org/1999/xlink" x="0px" y="0px"
	 viewBox="0 0 158.5 158.5" enable-background="new 0 0 158.5 158.5" xml:space="preserve">
<g>
	<path fill="#B9000D" d="M65.6,3.5c-2.8,1.4-9.5,15.1-10.7,18c-4.1,9.9-5,23.6-0.5,33.3c6.5,14,24.2,23.5,24.2,23.5
		s-9.1-14.6-9.4-31.5c-0.2-9.3,8.3-22.8,13.2-26.7c9-7,10.8-8.7,23-14c-14.3-3.3-18.5-5.7-37-3.7"/>
</g>
<g>
	<path fill="#B9000D" d="M7.3,52.2c-0.2,3.2,8.3,15.7,10.3,18.2c6.5,8.5,17.9,16.1,28.6,17.1c15.4,1.4,32.4-9.2,32.4-9.2
		s-17.2,0.5-31.9-7.6C38.5,66.2,31,52.1,30.1,45.9c-1.6-11.2-2.1-13.7-0.6-26.9c-10,10.8-14.2,13.2-21.7,30.2"/>
</g>
<g>
	<path fill="#B9000D" d="M20.3,127c2.6,1.8,17.8,0.7,20.9,0.2c10.6-1.4,22.9-7.4,29.1-16.2c8.9-12.6,8.2-32.7,8.2-32.7
		S70.5,93.5,56,102.2c-8,4.8-25.3,3.4-31,1.1C14.5,99,13.4,99,2.7,91.2C7.1,105.2,7.1,110,18,125"/>
</g>
<g>
	<path fill="#B9000D" d="M91.8,153.8c2.8-1.4,9.2-15.7,10.5-18.7c4.1-9.9,5-23.6,0.5-33.3c-6.5-14-24.2-23.5-24.2-23.5
		s9.1,14.6,9.4,31.5c0.2,9.3-8.3,22.8-13.2,26.7c-9,7-10.8,8.7-23,14c14.3,3.3,18.5,5.7,37,3.7"/>
</g>
<g>
	<path fill="#B9000D" d="M150.5,105.2c0.2-3.2-8.9-16.6-10.9-19.1c-6.5-8.5-17.9-16.1-28.6-17.1c-15.4-1.4-32.4,9.2-32.4,9.2
		s17.2-0.5,31.9,7.6c8.2,4.5,15.7,18.6,16.5,24.7c1.6,11.2,2.1,13.7,0.6,26.9c5.7-5.2,14.5-12.6,22-29.6"/>
</g>
<g>
	<path fill="#B9000D" d="M138.4,29.4c-2.6-1.8-19.3-0.4-22.5,0c-10.6,1.4-22.9,7.4-29.1,16.2c-8.9,12.6-8.2,32.7-8.2,32.7
		s8.1-15.2,22.6-23.9c8-4.8,23.3-4,29.1-1.7c10.5,4.3,13.5,4.8,24.2,12.7c-3.4-14.6-4-19.2-14.9-34.2"/>
</g>
<path fill="none" stroke="#000000" stroke-miterlimit="10" d="M129.4,115.6"/>
<path fill="none" stroke="#000000" stroke-miterlimit="10" d="M29.4,19.6c0,0-10.3,60.3,49.2,58.7"/>
<path fill="none" stroke="#000000" stroke-miterlimit="10" d="M141.2,85.2"/>
<path fill="none" stroke="#000000" stroke-miterlimit="10" d="M6.6,52c0,0,21.2,57.4,72,26.3"/>
<path fill="none" stroke="#000000" stroke-miterlimit="10" d="M136.3,53"/>
<path fill="none" stroke="#000000" stroke-miterlimit="10" d="M3.1,91.6c0,0,47.1,39.1,75.5-13.2"/>
<path fill="none" stroke="#000000" stroke-miterlimit="10" d="M115.9,27.5"/>
<path fill="none" stroke="#000000" stroke-miterlimit="10" d="M19.9,127.5c0,0,60.3,10.3,58.7-49.2"/>
<path fill="none" stroke="#000000" stroke-miterlimit="10" d="M85.5,15.7"/>
<path fill="none" stroke="#000000" stroke-miterlimit="10" d="M52.3,150.3c0,0,57.4-21.2,26.3-72"/>
<path fill="none" stroke="#000000" stroke-miterlimit="10" d="M53.3,20.6"/>
<path fill="none" stroke="#000000" stroke-miterlimit="10" d="M91.8,153.8c0,0,39.1-47.1-13.2-75.5"/>
<path fill="none" stroke="#000000" stroke-miterlimit="10" d="M27.8,41"/>
<path fill="none" stroke="#000000" stroke-miterlimit="10" d="M127.8,137c0,0,10.3-60.3-49.2-58.7"/>
<path fill="none" stroke="#000000" stroke-miterlimit="10" d="M16,71.4"/>
<path fill="none" stroke="#000000" stroke-miterlimit="10" d="M150.6,104.6c0,0-21.2-57.4-72-26.3"/>
<path fill="none" stroke="#000000" stroke-miterlimit="10" d="M20.9,103.6"/>
<path fill="none" stroke="#000000" stroke-miterlimit="10" d="M154.1,65.1c0,0-47.1-39.1-75.5,13.2"/>
<path fill="none" stroke="#000000" stroke-miterlimit="10" d="M41.3,129.1"/>
<path fill="none" stroke="#000000" stroke-miterlimit="10" d="M137.3,29.1c0,0-60.3-10.3-58.7,49.2"/>
<path fill="none" stroke="#000000" stroke-miterlimit="10" d="M71.7,140.9"/>
<path fill="none" stroke="#000000" stroke-miterlimit="10" d="M104.8,6.3c0,0-57.4,21.2-26.3,72"/>
<path fill="none" stroke="#000000" stroke-miterlimit="10" d="M103.9,136"/>
<path fill="none" stroke="#000000" stroke-miterlimit="10" d="M65.3,2.8c0,0-39.1,47.1,13.2,75.5"/>
<path fill="none" stroke="#000000" stroke-miterlimit="10" d="M129.4,115.6"/>
<path fill="none" stroke="#000000" stroke-miterlimit="10" d="M29.4,19.6c0,0-10.3,60.3,49.2,58.7"/>
<circle fill="none" stroke="#000000" stroke-miterlimit="10" cx="79.1" cy="78.4" r="76.7"/>
</svg>
