<?xml version="1.0" encoding="utf-8"?>
<!-- Generator: Adobe Illustrator 18.0.0, SVG Export Plug-In . SVG Version: 6.00 Build 0)  -->
<!DOCTYPE svg PUBLIC "-//W3C//DTD SVG 1.1//EN" "http://www.w3.org/Graphics/SVG/1.1/DTD/svg11.dtd">
<svg version="1.1" id="Layer_1" xmlns="http://www.w3.org/2000/svg" xmlns:xlink="http://www.w3.org/1999/xlink" x="0px" y="0px"
	 viewBox="0 0 628.6 57.9" enable-background="new 0 0 628.6 57.9" xml:space="preserve">
<g>
	<path fill="#335C33" stroke="#194719" d="M47.1,44.5c-4.6,6.9-10.9,10.3-18.8,10.3c-8.2,0-14.7-3.5-19.3-10.4
		c-3.8-5.7-5.7-11.9-5.7-18.8c0-9.2,2.3-15.4,7-18.7C13.7,4.2,19.8,3,28.3,3C37,3,43,4.1,46.5,6.6c4.4,3,6.5,8.7,6.5,17.2
		C53,31.7,51,38.6,47.1,44.5z M36.5,14.9c-1.4-5.2-4.1-7.8-8.1-7.8c-3.8,0-6.5,2.3-8.1,6.9c-1.1,3-1.6,7-1.6,11.6
		c0,5.7,0.4,10.6,1.4,14.5c1.6,6.6,4.2,9.8,8.1,9.8c3.3,0,5.9-3.4,7.6-10.1c1.1-4.7,1.7-9.3,1.7-13.8C37.5,21,37.2,17.3,36.5,14.9z"
		/>
	<path fill="#335C33" stroke="#194719" d="M87.5,44.9c-0.2,3.2-0.2,5.6-0.2,7.2c0,2-1.1,2.9-3.2,2.9c-1.5,0-2.3-0.4-2.3-1.2
		c0-0.2,0.4-0.9,1.1-2.1c0.4-0.5,0.5-1.1,0.5-1.5c0-1.6-1.6-3.9-4.8-7l-5.6-5.3l-9.9-9.1c-0.5-0.4-0.8-0.6-1-0.6
		c-0.2,0-0.4,0.3-0.4,0.9v1.4c0,0.5,0,1.1-0.1,1.8c0,0.7,0,1.3,0,1.8v1.3c0,6.9,0.4,11.6,1,14.3l2.4,4.3c0,0.8-1,1.1-3,1.1
		c-2.1,0-3.2-0.7-3.7-2.2c-0.3-1-0.5-4.2-0.5-9.5c0-1.4,0.1-3.4,0.1-6c0.2-6.2,0.4-9.8,0.4-11.1c0-1.5-0.6-2.8-1.9-3.8
		c-0.6-0.4-0.9-0.9-0.9-1.5c0-0.8,0.6-1.2,2-1.2h6.8c1.4,0,2.5,0.4,3.6,1.1c0.4,0.2,1.1,0.9,2.2,1.9l6.7,6.3
		c1.9,1.9,4.1,3.8,6.2,5.9c0.2,0.2,0.4,0.3,0.5,0.3c0.2,0,0.4-0.4,0.4-1.1c0-4.2-0.4-7.2-1.1-9.2l-2.5-4c0-0.9,1.1-1.2,3.4-1.2
		c1.9,0,3.1,1,3.4,3c0.2,1.5,0.4,6.6,0.4,15C87.7,39.3,87.7,41.7,87.5,44.9z"/>
	<path fill="#335C33" stroke="#194719" d="M117.9,30.4c-1.6,1.6-3.3,2.5-5.3,2.5c-0.6,0-1.4-0.2-2.4-0.6c-1.1-0.4-1.7-1-1.7-1.5
		c0-0.4,0.5-0.8,1.7-1.5c1.2-0.6,1.7-1.5,1.7-2.6c0-2.2-1.9-3.7-4.2-3.7c-2.4,0-4,1.4-5.1,4.2c-0.8,2-1.2,4.4-1.2,7.1
		c0,5.1,0.9,9.1,2.7,12.2c2.2,3.8,5.7,5.6,10.3,5.6c0.5,0,1.1,0,2.1-0.1c0.9-0.1,1.5-0.1,2-0.1c0.7,0,1,0.2,1,0.8
		c0,0.8-1.5,1.4-4.6,1.8c-2.2,0.4-4.1,0.5-5.6,0.5c-4.6,0-8.7-1.6-12.3-4.9c-4.3-4-6.4-9.4-6.4-16.1c0-4.3,0.9-7.6,2.8-9.9
		c2-2.5,5.1-3.9,9.3-3.9H115c3.5,0,5.3,1.6,5.3,4.8C120.3,26.9,119.5,28.7,117.9,30.4z"/>
	<path fill="#335C33" stroke="#194719" d="M147.8,53.8c-0.6,0.7-1.4,1-2.1,1h-20.9c-1.4,0-2.1-0.5-2.1-1.4c0-0.1,0.4-0.7,1.2-2
		c0.8-1.2,1.2-2.7,1.2-4.3l0-19.9c0-1.5-0.2-2.6-0.7-3.4c-0.3-0.6-0.8-1.3-1.5-2.4c0-0.9,0.6-1.2,1.8-1.2h15.9
		c2.6,0,5.1-0.2,7.2-0.5c0.7,0,1.2,0.8,1.5,2.4c0.3,1,0.4,2,0.4,3.1c0,1.4-0.4,2-1.1,2c-0.2,0-0.7-0.4-1.4-1.1c-1-1-1.9-1.6-2.8-2.1
		c-1.4-0.8-2.9-1.1-4.5-1.1c-1.5,0-2.7,0.4-3.7,1.1c-1.1,0.8-1.6,1.9-1.6,3.4c0,0.4,0,1,0,1.7c0,0.6,0,1.2,0,1.6
		c0,1,0.1,1.5,0.4,1.5c1.2-2.6,3.9-4.2,6.9-4.2c1.5,0,2.8,0.8,3.7,2.2c0.8,1.1,1.1,2.2,1.1,3c0,2.2-0.9,3.8-2.5,4.8
		c-1.4,0.8-2.5,1.1-3.2,0.9c-0.2-0.1-0.2-0.2-0.2-0.4c0-0.2,0.5-1.3,0.5-1.8c0-0.6-0.4-1.2-1-1.8c-0.5-0.4-0.9-0.6-1.2-0.6
		c-3.2,0-4.7,3.2-4.7,9.5v1.7c0,2.2,0.2,3.7,0.8,4.5c0.6,1,1.6,1.4,3.1,1.4c2.4,0,4.5-0.8,6.3-2.3l5-5c0.8,0,1.1,0.5,1.1,1.5
		C150.5,48,149.6,50.8,147.8,53.8z"/>
	<path fill="#335C33" stroke="#194719" d="M230.7,53.1c0,0.5-0.4,0.8-1,1c-2.1,0-7.8,0.3-17.4,0.9c-4.4,0.3-8,0.4-10.7,0.4
		c-8.5,0-14.4-2.9-17.8-8.6c-2.3-4.1-3.5-8.1-3.5-12c0-2.1,0.3-5.6,1-10.4c0.2-2.3,1.3-6.8,3.3-13.7c0-1.8-0.7-3.4-1.9-4.8
		c-0.1-0.3-0.1-0.5-0.1-0.6c0-1,0.4-1.6,1.3-1.7c1.5-0.2,3.6-0.4,6.3-0.4l4.3-0.1h3.6c1.2,0.4,1.8,0.9,1.9,1.4
		c0,1.4-0.3,3.2-0.8,5.5c-0.5,1.9-0.9,3.6-1.4,5.4c-1,4.2-1.4,8.7-1.4,13.5c0,3.3,0.2,6.1,0.7,8.7c0.5,3,1.2,5.6,2.1,7.5
		c1.9,4.1,5.2,6.1,9.7,6.1c1.3-0.1,2.8-0.2,3.5-1c0.8-1.4,1.2-3.8,1.2-7v-1.7c0-11.3-0.5-21.2-1.6-29.7c0-1.8-1.2-3.7-3.6-5.8
		c-0.4-2.4,1.1-3,5.3-3h5h5.5c0.9,0.5,1.4,1,1.6,1.3c0.7,1.3,1,5.2,1.2,11.5L227,28c0.2,6,0.4,11.1,0.4,15.5
		c0.2,2.3,0.4,3.8,0.7,4.8c0.5,1.7,1.4,3,2.5,4C230.7,52.6,230.7,52.8,230.7,53.1z"/>
	<path fill="#335C33" stroke="#194719" d="M259.6,35c-2.6,1.9-5.5,2.9-8.7,2.9c-0.9,0-1.8-0.2-3-0.4c-1.4-0.3-2.2-0.8-2.2-1.4
		c0-0.6,0.5-0.9,1.5-0.8h0.2c0.1,0,0.3,0,0.4,0h0.5c1.5,0,2.6-0.5,3.5-1.6c0.8-1.1,1.2-2.3,1.2-3.8c0-4.5-1.3-6.7-4-6.7
		c-2,0-3.4,1-4.2,3c-0.5,1.2-0.6,3-0.6,5.6v9.7c0,4.2,0.2,7.2,0.8,9c0.5,1.2,1.1,2.3,1.8,3.4c0,0.5-0.7,1-1.2,1h-7.9
		c-1.1,0-1.8-0.5-2.1-1.5c-0.2-0.6-0.2-1.5-0.2-2.9V28.1c0-1.9-0.2-3.4-0.7-4.3c-0.5-0.9-1-1.7-1.5-2.7c0-0.6,0.5-1,1.7-1
		c-0.2,0,6.2-0.1,19.7-0.4c6.2-0.2,9.3,2.4,9.3,7.5C263.8,30.4,262.4,33,259.6,35z"/>
	<path fill="#335C33" stroke="#194719" d="M295.6,47.8c-3.1,4.6-7.4,7-12.7,7c-5.6,0-9.9-2.4-13.1-7.1c-2.6-3.9-3.9-8.1-3.9-12.7
		c0-6.2,1.6-10.4,4.7-12.7c2.4-1.8,6.5-2.6,12.2-2.6c5.9,0,10,0.8,12.3,2.5c3,2,4.4,5.9,4.4,11.7C299.6,39.2,298.2,43.9,295.6,47.8z
		 M288.4,27.9c-1-3.5-2.8-5.2-5.5-5.2c-2.6,0-4.4,1.5-5.5,4.7c-0.8,2-1.1,4.7-1.1,7.9c0,3.9,0.3,7.2,1,9.8c1.1,4.5,2.9,6.7,5.5,6.7
		c2.2,0,4-2.3,5.2-6.9c0.8-3.1,1.1-6.2,1.1-9.3C289.1,32,288.9,29.5,288.4,27.9z"/>
	<path fill="#335C33" stroke="#194719" d="M333.6,44.9c-0.2,3.2-0.2,5.6-0.2,7.2c0,2-1.1,2.9-3.2,2.9c-1.5,0-2.3-0.4-2.3-1.2
		c0-0.2,0.4-0.9,1.1-2.1c0.4-0.5,0.5-1.1,0.5-1.5c0-1.6-1.6-3.9-4.8-7l-5.6-5.3l-9.9-9.1c-0.5-0.4-0.8-0.6-1-0.6
		c-0.2,0-0.4,0.3-0.4,0.9v1.4c0,0.5,0,1.1-0.1,1.8c0,0.7,0,1.3,0,1.8v1.3c0,6.9,0.4,11.6,1,14.3l2.4,4.3c0,0.8-1,1.1-3,1.1
		c-2.1,0-3.2-0.7-3.7-2.2c-0.3-1-0.5-4.2-0.5-9.5c0-1.4,0.1-3.4,0.1-6c0.3-6.2,0.4-9.8,0.4-11.1c0-1.5-0.6-2.8-1.9-3.8
		c-0.6-0.4-0.9-0.9-0.9-1.5c0-0.8,0.6-1.2,2-1.2h6.8c1.4,0,2.5,0.4,3.6,1.1c0.4,0.2,1.1,0.9,2.2,1.9l6.7,6.3
		c1.9,1.9,4.1,3.8,6.2,5.9c0.2,0.2,0.4,0.3,0.5,0.3c0.2,0,0.4-0.4,0.4-1.1c0-4.2-0.4-7.2-1.1-9.2l-2.5-4c0-0.9,1.1-1.2,3.4-1.2
		c1.9,0,3.1,1,3.4,3c0.2,1.5,0.4,6.6,0.4,15C333.8,39.3,333.8,41.7,333.6,44.9z"/>
	<path fill="#335C33" stroke="#194719" d="M412.8,53.1c-1.1,1-2.1,1.4-3.3,1.4c-1.7,0.2-3.8,0.3-6.4,0.3h-0.8
		c-1.9,0-3.8-0.1-5.6-0.4c-0.4-0.4-0.6-0.8-0.6-1.3c0-0.4,0-0.7,0.1-0.7l1.6-2c0.7-0.8,1-1.6,1.2-2.4c0-2.7-0.4-5.8-1.3-9.3
		c-0.5-1.8-1.3-4.7-2.7-8.8c-0.1-0.1-0.3-0.1-0.7-0.1c-1.8,2.9-3.7,4.7-5.7,5.6c-0.1,0.1-0.5,0.1-1,0.1c-1,0-1.5-0.3-1.6-1
		c0.2-0.8,0.2-1.4,0.2-2.1c0-0.7-0.1-1.2-0.4-1.6c-0.9-1.3-2.2-1.9-4.1-1.9c-0.7,0-1.3,0.1-1.9,0.2c-3.4,1.4-5.8,4.1-7.3,8.1
		c-0.8,2.1-1.4,5.9-1.9,11.2c-0.1,0.1-0.1,0.2-0.1,0.4c0,0.6,0.4,1.3,1,2.1c0.9,1.1,1.3,1.9,1.3,2.1c0,0.7-0.5,1.1-1.6,1.5
		c-2.4,0.2-3.6,0.3-3.4,0.3c-1.9,0-3.2-0.6-3.8-1.7c-0.1-0.7-0.2-1.5-0.2-2.3c0-2,0.7-5.4,2.1-10.1c1-3.2,2.1-6.5,3.3-10.1
		c1.9-5.3,4.4-12,7.4-20c0.2-0.4,0.3-0.7,0.3-1.1c0-0.5-0.3-1.3-1-2.2c-0.6-1-0.9-1.6-0.9-2c0-0.5,0.4-1,1-1.6l1.7-0.1
		c2-0.2,4.3-0.2,7.2-0.1c2.1,0.1,3.6,0.1,4.7,0.1h1.9l11-0.1c0.2,0,0.7,0.4,1.3,1c0.1,0.6-0.1,1.4-0.7,2.4c-0.5,1-0.8,1.7-0.8,2.2
		c0,0.2,0.1,0.5,0.1,0.9l4.4,13c1.9,5.6,3.1,9.9,3.9,13.1c1.2,4.7,2.1,9.3,2.6,13.7C413.7,51,413.5,52.1,412.8,53.1z M391.1,18.3
		c0-0.8-0.6-2.2-1.9-4.4c-0.9-1.6-1.9-2.7-2.9-3.3c-0.2-0.1-0.4-0.1-0.7-0.1c-0.6,0-1.3,0.4-2.1,1c-1.4,1.5-2.5,3.2-3.5,5.1
		c-0.7,1.4-1.4,3.3-2.2,5.8c0,0.4,0.1,0.5,0.5,0.5c2.7-2.7,5.3-4.1,7.5-4.1c1.3,0,2.9,0.3,4.7,1c0.2,0,0.4-0.4,0.5-1
		C391.1,18.6,391.1,18.5,391.1,18.3z"/>
	<path fill="#335C33" stroke="#194719" d="M488.2,14.5c0,2.1-0.5,3.2-1.5,3.2c-1.7-2.7-3.3-4.7-4.6-5.9c-2.1-1.9-4.3-2.9-6.7-2.9
		c-1.8,0-2.7,1.3-2.7,3.8l0.2,31c0,2.4,1.2,5.6,3.5,9.5c0,0.9-1.5,1.6-2.4,1.6h-15.2c-1.5,0-2.2-0.4-2.2-1.1c0-0.2,0.5-1.4,1.6-3.4
		c1-2.1,1.6-4.3,1.6-6.7c0-4.2-0.1-10-0.1-17.7l-0.1-13.2c0-1.5-1.9-3.6-3.4-3.6c-2.1,0-4,0.7-5.6,2.2c-0.7,0.6-1.8,2-3.2,4.2
		c-1,1.5-1.9,2.2-2.5,2.2c-1,0-1.6-1.4-1.6-4.1c0-2.1,0.4-4.3,1.3-6.4c1.1-2.7,2.6-4.1,4.4-4.1h34.4c1.5,0,2.7,1.5,3.7,4.4
		c0.7,2.1,1.1,4.2,1.1,6.2V14.5z"/>
	<path fill="#335C33" stroke="#194719" d="M503,54.8h-10.4c-0.6,0-1.7-0.6-1.7-1.2c1.4-2.2,2.1-4.7,2.1-7.5V26.7
		c0-1.1-0.2-2.1-0.5-3.1c-0.1-0.2-0.6-1.2-1.5-2.8c0-0.8,0.7-1.1,1.9-1.1h9.7c1.2,0,1.8,0.4,1.8,1.3c0,0.1-0.3,0.8-1,2
		c-0.7,1.1-1,2.4-1,3.7l0,19.6c0,2.5,0.5,4.5,1.5,5.9c0.5,0.6,0.7,1.2,0.7,1.6C504.5,54.3,503.6,54.8,503,54.8z"/>
	<path fill="#335C33" stroke="#194719" d="M538.6,54.8h-5.9c-0.6,0-1.7-0.6-1.7-1.1c0-0.5,0.4-1.1,1.1-1.9s1.1-1.6,1.1-2.5
		c0-2.5-0.2-5.5-0.7-8.9c0-0.1-0.5-3.1-1.4-9c-0.1-0.5-0.2-0.8-0.4-0.8c-0.2,0-0.5,0.2-0.7,0.8l-3.2,6.4c-1.3,2.8-2.3,4.4-2.8,5.1
		c-0.5,0.6-1.1,0.9-1.7,0.9c-1,0-2-0.9-3-2.5l-1.8-3.5l-3.7-6.5c-0.3-0.5-0.5-0.8-0.8-0.8s-0.3,0.2-0.4,0.8
		c-0.6,6.9-0.9,13.5-0.9,19.6c0,0.3,0.3,0.8,0.8,1.5c0.5,0.6,0.9,1.2,0.9,1.6c0,0.4-0.4,0.8-1.2,0.9c-0.3,0-0.9,0.1-1.8,0.1
		c-1.1,0-1.9-0.1-2.5-0.4c-0.7-0.4-1-1.1-1-2.1v-0.6c0-2.6,0.2-5.7,0.7-9.5c0,0,0.4-3.1,1.3-9.6c0.5-3.6,0.8-5.9,0.8-7
		c0-1.2-0.5-2.4-1.3-3.4c-0.5-0.5-0.7-1-0.7-1.6c0-0.7,0.5-1,1.5-1h6c1.6,0,2.8,0.6,3.7,2l4.4,7.7c0.6,1,1.2,1.5,1.8,1.5
		c0.5,0,1.2-0.9,2.1-2.6l1.3-2.9c1.2-2.6,1.9-3.8,2.1-4c0.8-1.3,1.8-1.9,2.9-1.9h6.2c1.1,0,1.6,0.3,1.6,1c0,0.3-0.3,0.8-0.9,1.6
		c-0.6,0.8-0.9,1.6-0.9,2.6c0,1,0.3,3.1,0.9,6.5c0.8,5,1.3,8.2,1.6,9.9c0.6,4.1,0.9,7.4,0.9,9.5C543.2,53.9,542,54.8,538.6,54.8z"/>
	<path fill="#335C33" stroke="#194719" d="M570.6,53.8c-0.7,0.7-1.3,1-2,1h-20.9c-1.4,0-2.1-0.5-2.1-1.4c0-0.1,0.4-0.7,1.2-2
		c0.8-1.2,1.2-2.7,1.2-4.3l0-19.9c0-1.5-0.2-2.6-0.7-3.4c-0.3-0.6-0.8-1.3-1.5-2.4c0-0.9,0.6-1.2,1.8-1.2h15.9
		c2.7,0,5.1-0.2,7.2-0.5c0.6,0,1.1,0.8,1.5,2.4c0.2,1,0.3,2,0.3,3.1c0,1.4-0.3,2-1.1,2c-0.2,0-0.7-0.4-1.5-1.1c-1-1-1.9-1.6-2.8-2.1
		c-1.3-0.8-2.8-1.1-4.5-1.1c-1.5,0-2.7,0.4-3.6,1.1c-1.1,0.8-1.6,1.9-1.6,3.4c0,0.4,0,1,0,1.7c0,0.6,0,1.2,0,1.6
		c0,1,0.1,1.5,0.4,1.5c1.2-2.6,3.9-4.2,6.9-4.2c1.5,0,2.8,0.8,3.7,2.2c0.8,1.1,1.2,2.2,1.2,3c0,2.2-0.8,3.8-2.5,4.8
		c-1.4,0.8-2.5,1.1-3.2,0.9c-0.2-0.1-0.2-0.2-0.2-0.4c0-0.2,0.5-1.3,0.5-1.8c0-0.6-0.3-1.2-1-1.8c-0.5-0.4-0.9-0.6-1.2-0.6
		c-3.2,0-4.7,3.2-4.7,9.5v1.7c0,2.2,0.2,3.7,0.8,4.5c0.6,1,1.7,1.4,3.1,1.4c2.4,0,4.5-0.8,6.3-2.3l5-5c0.8,0,1.2,0.5,1.2,1.5
		C573.3,48,572.4,50.8,570.6,53.8z"/>
	<path fill="#335C33" stroke="#194719" d="M583.8,54.8c-2.9,0-5.4-2.1-5.4-5c0-2.7,2.4-5,5.2-5c2.9,0,5.4,2.1,5.4,5
		C589,52.5,586.6,54.8,583.8,54.8z"/>
	<path fill="#335C33" stroke="#194719" d="M602.3,54.8c-2.9,0-5.4-2.1-5.4-5c0-2.7,2.4-5,5.2-5c2.9,0,5.4,2.1,5.4,5
		C607.5,52.5,605.1,54.8,602.3,54.8z"/>
	<path fill="#335C33" stroke="#194719" d="M620.8,54.8c-2.9,0-5.4-2.1-5.4-5c0-2.7,2.4-5,5.2-5c2.9,0,5.4,2.1,5.4,5
		C626,52.5,623.6,54.8,620.8,54.8z"/>
</g>
<g>
</g>
<g>
</g>
<g>
</g>
<g>
</g>
<g>
</g>
<g>
</g>
<g>
</g>
<g>
</g>
<g>
</g>
<g>
</g>
<g>
</g>
<g>
</g>
<g>
</g>
<g>
</g>
<g>
</g>
</svg>
